# xmcd
#
# Track frame offsets:
# 150
# 17562
# 36682
# 54817
# 73635
# 91655
# 109242
# 124667
# 140145
# 151130
# 168590
#
# Disc length: 2466 seconds
#
#
# Revision: 5
# Processed by: cddbd v1.4PL0 Copyright (c) Steve Scherf et al.
# Submitted via: FreeRIP 2.40 
#
DISCID=9009a00b
DTITLE=Shakira - Pies Descalzos
DYEAR=2001
DGENRE=Pop
TTITLE0=Estoy Aquí
TTITLE1=Antología
TTITLE2=Un Poco de Amor
TTITLE3=Quiero
TTITLE4=Te Necesito
TTITLE5=Vuelve
TTITLE6=Te Espero Sentada
TTITLE7=Pies Descalzos, Sueños Blancos
TTITLE8=Pienso en Ti
TTITLE9=Dónde Estás Corazón
TTITLE10=Se Quiere Se Mata
EXTD=YEAR: 2001 ID3G: 13
EXTT0=
EXTT1=
EXTT2=
EXTT3=
EXTT4=
EXTT5=
EXTT6=
EXTT7=
EXTT8=
EXTT9=
EXTT10=
PLAYORDER=
